<svg version="1.1" xmlns="http://www.w3.org/2000/svg" width="455px" height="512px" viewBox="0 0 455 512">
  <path fill="black" d="M435.279,113.284 L247.191,4.692 c-10.835-6.257-28.567-6.257-39.402,0 L19.701,113.284 C8.865,119.539,0,134.896,0,147.408 v217.185 c0.843,14.571,8.286,26.639,19.701,34.123 l188.088,108.592 c10.835,6.257,28.567,6.257,39.402,0 l188.088-108.592 c12.248-8.146,19.219-20.408,19.701-34.123 V147.408 C454.54,134.243,446.657,120.965,435.279,113.284z M75.83,256.001 c-0.891-148.089,197.459-213.479,282.996-75.878 l-65.635,37.98 c-39.622-65.534-138.001-42.101-141.532,37.897 c1.06,73.729,97.754,107.978,141.536,37.893 l65.636,37.979 C283.448,462.735,79.632,415.653,75.83,256.001z"/>
</svg>
